<mxfile host="app.diagrams.net" modified="2023-08-22T01:20:05.292Z" agent="Mozilla/5.0 (Windows NT 10.0; Win64; x64) AppleWebKit/537.36 (KHTML, like Gecko) Chrome/116.0.0.0 Safari/537.36" etag="vLMhMdewGcRAVy7D-C4S" version="21.6.8" type="device">
  <diagram name="Página-1" id="zPRXVbtt-nDKDSX4xXeY">
    <mxGraphModel dx="1434" dy="788" grid="1" gridSize="10" guides="1" tooltips="1" connect="1" arrows="1" fold="1" page="1" pageScale="1" pageWidth="827" pageHeight="1169" math="0" shadow="0">
      <root>
        <mxCell id="0" />
        <mxCell id="1" parent="0" />
        <mxCell id="v4r11n686YP6cXwBkwm5-11" value="" style="points=[[0.25,0,0],[0.5,0,0],[0.75,0,0],[1,0.25,0],[1,0.5,0],[1,0.75,0],[0.75,1,0],[0.5,1,0],[0.25,1,0],[0,0.75,0],[0,0.5,0],[0,0.25,0]];shape=mxgraph.bpmn.task;whiteSpace=wrap;rectStyle=rounded;size=10;html=1;container=1;expand=0;collapsible=0;taskMarker=abstract;" vertex="1" parent="1">
          <mxGeometry x="170" y="140" width="440" height="530" as="geometry" />
        </mxCell>
        <mxCell id="v4r11n686YP6cXwBkwm5-12" value="UC01 - RASTREAR PEDIDO" style="strokeWidth=2;html=1;shape=mxgraph.flowchart.start_1;whiteSpace=wrap;" vertex="1" parent="v4r11n686YP6cXwBkwm5-11">
          <mxGeometry x="160" y="20" width="100" height="60" as="geometry" />
        </mxCell>
        <mxCell id="v4r11n686YP6cXwBkwm5-13" value="UC02 - REALIZAR PAGAMENTO" style="strokeWidth=2;html=1;shape=mxgraph.flowchart.start_1;whiteSpace=wrap;" vertex="1" parent="v4r11n686YP6cXwBkwm5-11">
          <mxGeometry x="160" y="110" width="100" height="60" as="geometry" />
        </mxCell>
        <mxCell id="v4r11n686YP6cXwBkwm5-14" value="UC03 - REGISTRAR CONTA" style="strokeWidth=2;html=1;shape=mxgraph.flowchart.start_1;whiteSpace=wrap;" vertex="1" parent="v4r11n686YP6cXwBkwm5-11">
          <mxGeometry x="160" y="190" width="100" height="60" as="geometry" />
        </mxCell>
        <mxCell id="v4r11n686YP6cXwBkwm5-15" value="UC04 - ADICIONAR PRODUTOS" style="strokeWidth=2;html=1;shape=mxgraph.flowchart.start_1;whiteSpace=wrap;" vertex="1" parent="v4r11n686YP6cXwBkwm5-11">
          <mxGeometry x="160" y="270" width="100" height="60" as="geometry" />
        </mxCell>
        <mxCell id="v4r11n686YP6cXwBkwm5-16" value="UC05 - COMPRAR PRODUTOS" style="strokeWidth=2;html=1;shape=mxgraph.flowchart.start_1;whiteSpace=wrap;" vertex="1" parent="v4r11n686YP6cXwBkwm5-11">
          <mxGeometry x="160" y="340" width="100" height="60" as="geometry" />
        </mxCell>
        <mxCell id="v4r11n686YP6cXwBkwm5-17" value="UC06 - APRESENTAR CATÁLOGO" style="strokeWidth=2;html=1;shape=mxgraph.flowchart.start_1;whiteSpace=wrap;" vertex="1" parent="v4r11n686YP6cXwBkwm5-11">
          <mxGeometry x="160" y="415" width="100" height="60" as="geometry" />
        </mxCell>
        <mxCell id="v4r11n686YP6cXwBkwm5-18" value="UC07 - CRIAR DASHBOARD" style="strokeWidth=2;html=1;shape=mxgraph.flowchart.start_1;whiteSpace=wrap;" vertex="1" parent="v4r11n686YP6cXwBkwm5-11">
          <mxGeometry x="331" y="415" width="100" height="60" as="geometry" />
        </mxCell>
        <mxCell id="v4r11n686YP6cXwBkwm5-23" style="edgeStyle=orthogonalEdgeStyle;rounded=0;orthogonalLoop=1;jettySize=auto;html=1;exitX=1;exitY=1;exitDx=0;exitDy=0;exitPerimeter=0;" edge="1" parent="1" source="v4r11n686YP6cXwBkwm5-1" target="v4r11n686YP6cXwBkwm5-13">
          <mxGeometry relative="1" as="geometry" />
        </mxCell>
        <mxCell id="v4r11n686YP6cXwBkwm5-25" style="edgeStyle=orthogonalEdgeStyle;rounded=0;orthogonalLoop=1;jettySize=auto;html=1;exitX=0;exitY=1;exitDx=0;exitDy=0;exitPerimeter=0;" edge="1" parent="1" source="v4r11n686YP6cXwBkwm5-1" target="v4r11n686YP6cXwBkwm5-14">
          <mxGeometry relative="1" as="geometry" />
        </mxCell>
        <mxCell id="v4r11n686YP6cXwBkwm5-27" style="edgeStyle=orthogonalEdgeStyle;rounded=0;orthogonalLoop=1;jettySize=auto;html=1;exitX=0;exitY=0.3333333333333333;exitDx=0;exitDy=0;exitPerimeter=0;" edge="1" parent="1" source="v4r11n686YP6cXwBkwm5-1" target="v4r11n686YP6cXwBkwm5-16">
          <mxGeometry relative="1" as="geometry">
            <Array as="points">
              <mxPoint x="90" y="290" />
              <mxPoint x="90" y="510" />
            </Array>
          </mxGeometry>
        </mxCell>
        <mxCell id="v4r11n686YP6cXwBkwm5-1" value="Cliente" style="shape=umlActor;verticalLabelPosition=bottom;verticalAlign=top;html=1;outlineConnect=0;" vertex="1" parent="1">
          <mxGeometry x="110" y="270" width="30" height="60" as="geometry" />
        </mxCell>
        <mxCell id="v4r11n686YP6cXwBkwm5-24" style="edgeStyle=orthogonalEdgeStyle;rounded=0;orthogonalLoop=1;jettySize=auto;html=1;exitX=0;exitY=1;exitDx=0;exitDy=0;exitPerimeter=0;" edge="1" parent="1" source="v4r11n686YP6cXwBkwm5-2" target="v4r11n686YP6cXwBkwm5-14">
          <mxGeometry relative="1" as="geometry" />
        </mxCell>
        <mxCell id="v4r11n686YP6cXwBkwm5-26" style="edgeStyle=orthogonalEdgeStyle;rounded=0;orthogonalLoop=1;jettySize=auto;html=1;exitX=0;exitY=1;exitDx=0;exitDy=0;exitPerimeter=0;" edge="1" parent="1" source="v4r11n686YP6cXwBkwm5-2" target="v4r11n686YP6cXwBkwm5-15">
          <mxGeometry relative="1" as="geometry">
            <Array as="points">
              <mxPoint x="730" y="430" />
            </Array>
          </mxGeometry>
        </mxCell>
        <mxCell id="v4r11n686YP6cXwBkwm5-2" value="Fabricante" style="shape=umlActor;verticalLabelPosition=bottom;verticalAlign=top;html=1;outlineConnect=0;" vertex="1" parent="1">
          <mxGeometry x="730" y="290" width="30" height="60" as="geometry" />
        </mxCell>
        <mxCell id="v4r11n686YP6cXwBkwm5-28" style="edgeStyle=orthogonalEdgeStyle;rounded=0;orthogonalLoop=1;jettySize=auto;html=1;exitX=0.5;exitY=0;exitDx=0;exitDy=0;exitPerimeter=0;" edge="1" parent="1" source="v4r11n686YP6cXwBkwm5-19" target="v4r11n686YP6cXwBkwm5-17">
          <mxGeometry relative="1" as="geometry" />
        </mxCell>
        <mxCell id="v4r11n686YP6cXwBkwm5-29" style="edgeStyle=orthogonalEdgeStyle;rounded=0;orthogonalLoop=1;jettySize=auto;html=1;exitX=1;exitY=0.3333333333333333;exitDx=0;exitDy=0;exitPerimeter=0;" edge="1" parent="1" source="v4r11n686YP6cXwBkwm5-19" target="v4r11n686YP6cXwBkwm5-18">
          <mxGeometry relative="1" as="geometry" />
        </mxCell>
        <mxCell id="v4r11n686YP6cXwBkwm5-19" value="Sistema" style="shape=umlActor;verticalLabelPosition=bottom;verticalAlign=top;html=1;" vertex="1" parent="1">
          <mxGeometry x="384" y="730" width="30" height="60" as="geometry" />
        </mxCell>
        <mxCell id="v4r11n686YP6cXwBkwm5-22" value="" style="edgeStyle=elbowEdgeStyle;elbow=horizontal;endArrow=classic;html=1;curved=0;rounded=0;endSize=8;startSize=8;exitX=1;exitY=0.3333333333333333;exitDx=0;exitDy=0;exitPerimeter=0;" edge="1" parent="1" source="v4r11n686YP6cXwBkwm5-1" target="v4r11n686YP6cXwBkwm5-12">
          <mxGeometry width="50" height="50" relative="1" as="geometry">
            <mxPoint x="120" y="290" as="sourcePoint" />
            <mxPoint x="160" y="405" as="targetPoint" />
          </mxGeometry>
        </mxCell>
      </root>
    </mxGraphModel>
  </diagram>
</mxfile>
